# xmcd CD database file
#
# Track frame offsets:
#	150
#	22412
#	41785
#	69617
#	97450
#	116412
#	146462
#	177060
#	188400
#	209477
#	235482
#	241597
#
# Disc length: 3371 seconds
#
# Revision: 1
# Processed by: cddbd v1.5.2PL0 Copyright (c) Steve Scherf et al.
# Submitted via: CDex 1.51
#
DISCID=ae0d290c
DTITLE=Robert Wyatt - Shleep
DYEAR=1997
DGENRE=Progressive Rock
TTITLE0=Heaps Of Sheeps
TTITLE1=The Duchess
TTITLE2=Maryan
TTITLE3=Was A Friend
TTITLE4=Free Will And Testament
TTITLE5=September The Ninth
TTITLE6=Alien
TTITLE7=Out Of Season
TTITLE8=A Sunday In Madrid
TTITLE9=Blues In Bob Minor
TTITLE10=The Whole Point Of No Return
TTITLE11=September In The Rain
EXTD=YEAR: 1997
EXTT0=
EXTT1=
EXTT2=
EXTT3=
EXTT4=
EXTT5=
EXTT6=
EXTT7=
EXTT8=
EXTT9=
EXTT10=
EXTT11=
PLAYORDER=
